<svg width="133" height="36" viewBox="0 0 133 36" fill="none" xmlns="http://www.w3.org/2000/svg">
<g clip-path="url(#clip0_1050_617)">
<path d="M67.3565 12.0682L65.3396 28.6775L58.7897 17.8152C63.6443 16.6434 66.0717 13.8432 66.0717 9.41678C66.0717 6.99977 65.3169 5.02499 63.8073 3.49652C63.0092 2.67115 62.0729 2.10256 60.9984 1.79483C59.9116 1.46264 58.4453 1.29553 56.5995 1.29553H50.9261L47.3687 29.8616H51.6562L53.1163 18.1127H54.6713L61.5243 29.8616H69.3363L71.4976 12.0682H67.3606H67.3565ZM53.7515 14.5239L54.8754 5.34699H56.6717C58.4803 5.34699 59.8085 5.67917 60.6499 6.34559C61.4934 7.012 61.9141 8.06562 61.9141 9.50849C61.9141 10.7415 61.5635 11.8155 60.8664 12.7285C60.355 13.3826 59.7177 13.8453 58.9567 14.1163C58.2452 14.3874 57.1667 14.5239 55.7169 14.5239H53.7515Z" fill="white"/>
<path d="M69.7447 10.6069C70.3551 10.6069 70.881 10.3909 71.3161 9.95887C71.7533 9.52682 71.972 9.01529 71.972 8.42428C71.972 7.83328 71.741 7.27692 71.279 6.83264C70.8294 6.37614 70.2994 6.14789 69.6869 6.14789C69.0744 6.14789 68.5692 6.36391 68.1319 6.79596C67.7071 7.21578 67.4947 7.7273 67.4947 8.33258C67.4947 8.93785 67.7133 9.47383 68.1505 9.94256C68.6001 10.3868 69.1301 10.609 69.7426 10.609L69.7447 10.6069Z" fill="white"/>
<path d="M130.339 14.8317C128.58 13.2339 126.305 12.433 123.513 12.433C121.449 12.433 119.634 12.8813 118.069 13.774L118.275 13.5437C117.252 12.8039 116.116 12.433 114.868 12.433C113.445 12.433 112.034 12.9323 110.636 13.9309L110.824 12.433H106.687L104.515 29.8616H108.652L109.739 21.0413C109.85 20.0651 110.005 19.2275 110.197 18.5265C110.391 17.8254 110.634 17.2527 110.927 16.8085C111.22 16.3642 111.566 16.0381 111.966 15.8323C112.366 15.6265 112.828 15.5225 113.352 15.5225C113.987 15.5225 114.624 15.7487 115.26 16.1971C114.142 17.642 113.583 19.3417 113.583 21.294C113.583 23.7742 114.492 25.8224 116.314 27.4446C118.122 29.0545 120.453 29.8595 123.309 29.8595C126.165 29.8595 128.333 29.0077 130.191 27.306C132.061 25.6043 132.995 23.5011 132.995 20.9985C132.995 18.4959 132.111 16.405 130.339 14.8296V14.8317ZM127.248 25.0866C126.2 26.2116 124.864 26.772 123.241 26.772C121.618 26.772 120.296 26.2564 119.271 25.2293C118.248 24.2246 117.736 22.8938 117.736 21.237C117.736 19.5801 118.279 18.2269 119.366 17.1386C120.45 16.0626 121.824 15.5246 123.484 15.5246C125.144 15.5246 126.373 16.0096 127.359 16.9797C128.345 17.913 128.838 19.1847 128.838 20.7947C128.838 22.5453 128.308 23.976 127.246 25.0887L127.248 25.0866Z" fill="white"/>
<path d="M101.389 12.433L101.108 14.7277C100.172 13.7291 99.4067 13.0138 97.9446 12.6184C96.7505 12.2964 96.3978 12.2292 95.1378 12.2292C92.4671 12.2292 90.2769 13.3093 88.5673 15.064C88.5075 15.1272 88.4518 15.1924 88.392 15.2576C88.1672 14.9478 87.9218 14.6503 87.6454 14.3711C86.1729 12.8752 84.2694 12.1293 81.9349 12.1293C80.0376 12.1293 78.2021 12.7591 76.4306 14.0165L76.674 12.1293H72.537L69.6951 35.7452H73.8321L74.7828 27.2632C75.7191 28.2618 76.4842 28.9771 77.9464 29.3725C79.1405 29.6945 79.4931 29.7617 80.7532 29.7617C83.4239 29.7617 85.614 28.6816 87.3237 26.9269C87.3835 26.8638 87.4392 26.7985 87.4969 26.7354C87.7217 27.0451 87.9692 27.3427 88.2435 27.6219C89.716 29.1177 91.6195 29.8636 93.954 29.8636C95.8513 29.8636 97.6868 29.2339 99.4583 27.9765L99.2149 29.8636H103.352L105.524 12.435H101.387L101.389 12.433ZM96.2267 23.6927H99.7388C99.4933 24.1431 99.1881 24.569 98.8231 24.9725C97.7115 26.1708 96.3958 26.772 94.8717 26.772C93.4982 26.772 92.3763 26.2931 91.5019 25.3373C90.9678 24.7524 90.6007 24.0656 90.3924 23.279H85.0696C84.8262 23.7905 84.5107 24.2654 84.123 24.7056C83.0753 25.8815 81.7761 26.4684 80.2294 26.4684C78.8064 26.4684 77.6453 25.9895 76.7461 25.0337C76.3667 24.6342 76.0718 24.1818 75.8532 23.6805L79.3818 23.6642L81.079 21.9869V20.2465L79.2065 18.3899H76.1027C76.3564 17.9069 76.676 17.4504 77.0658 17.0204C78.1774 15.8221 79.4931 15.2209 81.0172 15.2209C82.3907 15.2209 83.5126 15.6998 84.387 16.6556C84.9541 17.2772 85.3336 18.0149 85.5336 18.8648H90.7533C91.0049 18.2962 91.3431 17.7704 91.768 17.2894C92.8156 16.1135 94.1149 15.5266 95.6616 15.5266C97.0846 15.5266 98.2456 16.0055 99.1448 16.9613C99.547 17.3832 99.8522 17.8662 100.075 18.4022L96.0534 18.4205L94.3561 20.0977V21.8382L96.2287 23.6947L96.2267 23.6927Z" fill="white"/>
</g>
<g clip-path="url(#clip1_1050_617)">
<path d="M32.5161 0H3.48387C1.55903 0 0 1.55903 0 3.48387V32.5161C0 34.441 1.55903 36 3.48387 36H32.5161C34.441 36 36 34.441 36 32.5161V3.48387C36 1.55903 34.441 0 32.5161 0ZM4.20968 21.24L7.71677 21.2226L9.75194 19.1874V17.0739L7.50484 14.821H4.20968V14.1068C4.42452 13.7816 4.66548 13.4652 4.93839 13.1603C6.27097 11.7058 7.85032 10.9771 9.67645 10.9771C11.3226 10.9771 12.6697 11.5577 13.7177 12.719C14.3971 13.4739 14.8529 14.3681 15.091 15.3987H21.3474C21.6494 14.7077 22.0558 14.069 22.5639 13.4855C23.821 12.06 25.3771 11.3458 27.2323 11.3458C28.9394 11.3458 30.33 11.9265 31.4071 13.0877C31.5435 13.2329 31.6684 13.3868 31.7874 13.5435V14.8384L27.6997 14.8587L25.6645 16.8939V19.0045L27.9116 21.2574H31.7874V21.8148C31.5639 22.1574 31.3113 22.4913 31.0268 22.8106C29.6942 24.2652 28.1148 24.9939 26.2887 24.9939C24.6426 24.9939 23.2955 24.4132 22.2474 23.2519C21.6087 22.5435 21.1674 21.7103 20.9177 20.7523H14.5365C14.2432 21.3735 13.8658 21.9513 13.4013 22.4826C12.1442 23.9081 10.5881 24.6223 8.7329 24.6223C7.02581 24.6223 5.63516 24.0416 4.55806 22.8803C4.43323 22.7497 4.32 22.6103 4.20968 22.4681V21.2313V21.24ZM6.87774 4.20968H29.1223C30.5971 4.20968 31.7903 5.40581 31.7903 6.87774V8.61677C31.2765 8.28871 30.6958 8.02452 29.9729 7.8271C28.5416 7.43516 28.1177 7.35387 26.6052 7.35387C23.4029 7.35387 20.7755 8.66613 18.7258 10.7942C18.6532 10.8697 18.5865 10.951 18.5168 11.0294C18.2468 10.6519 17.9535 10.2919 17.6226 9.95226C15.8574 8.13774 13.5755 7.23194 10.7768 7.23194C8.51516 7.23194 6.32613 7.98677 4.20968 9.49936V6.88065C4.20968 5.40581 5.40581 4.21258 6.87774 4.21258V4.20968ZM29.1223 31.7903H6.87774C5.4029 31.7903 4.20968 30.5942 4.20968 29.1223V27.3832C4.71484 27.6997 5.28677 27.9581 5.99516 28.1526C7.42645 28.5445 7.85032 28.6258 9.36 28.6258C12.5623 28.6258 15.1897 27.3135 17.2394 25.1855C17.3119 25.11 17.3787 25.0287 17.4484 24.9532C17.7155 25.3306 18.0145 25.6877 18.3426 26.0274C20.1077 27.8419 22.3926 28.7477 25.1884 28.7477C27.4616 28.7477 29.6623 27.9842 31.7874 26.4571V29.1194C31.7874 30.5942 30.5913 31.7874 29.1194 31.7874L29.1223 31.7903Z" fill="white"/>
</g>
<defs>
<clipPath id="clip0_1050_617">
<rect width="85.6268" height="34.4476" fill="white" transform="translate(47.3687 1.29553)"/>
</clipPath>
<clipPath id="clip1_1050_617">
<rect width="36" height="36" fill="white"/>
</clipPath>
</defs>
</svg>
