<svg width="103" height="28" viewBox="0 0 103 28" fill="none" xmlns="http://www.w3.org/2000/svg">
<g clip-path="url(#clip0_1050_597)">
<path d="M51.9922 9.31537L50.4353 22.1361L45.3795 13.7515C49.1268 12.847 51.0004 10.6855 51.0004 7.26878C51.0004 5.40309 50.4178 3.87876 49.2525 2.69894C48.6365 2.06184 47.9138 1.62295 47.0844 1.38541C46.2455 1.12899 45.1136 1 43.6889 1H39.3096L36.5636 23.0501H39.8731L41.0002 13.9812H42.2005L47.4903 23.0501H53.5204L55.1887 9.31537H51.9954H51.9922ZM41.4905 11.211L42.3581 4.12731H43.7446C45.1407 4.12731 46.1659 4.38372 46.8154 4.89813C47.4664 5.41253 47.7912 6.22582 47.7912 7.33957C47.7912 8.29129 47.5206 9.12031 46.9825 9.82505C46.5877 10.33 46.0958 10.6871 45.5084 10.8963C44.9592 11.1056 44.1267 11.211 43.0076 11.211H41.4905Z" fill="#F15B67"/>
<path d="M53.8356 8.18746C54.3068 8.18746 54.7127 8.02071 55.0486 7.68721C55.3861 7.35372 55.5548 6.95887 55.5548 6.50267C55.5548 6.04648 55.3765 5.61702 55.0199 5.27409C54.6729 4.92172 54.2638 4.74553 53.791 4.74553C53.3182 4.74553 52.9282 4.91228 52.5907 5.24577C52.2628 5.56983 52.0988 5.96468 52.0988 6.43189C52.0988 6.89909 52.2676 7.31282 52.605 7.67463C52.9521 8.01756 53.3612 8.18903 53.834 8.18903L53.8356 8.18746Z" fill="#F15B67"/>
<path d="M100.608 11.4485C99.2505 10.2152 97.4947 9.59695 95.3393 9.59695C93.7458 9.59695 92.3449 9.94303 91.1367 10.632L91.2959 10.4543C90.5063 9.88326 89.6292 9.59695 88.6661 9.59695C87.5677 9.59695 86.4788 9.98236 85.3995 10.7532L85.5444 9.59695H82.3511L80.6748 23.05H83.8681L84.7071 16.2417C84.793 15.4882 84.9124 14.8416 85.0605 14.3005C85.2101 13.7594 85.3979 13.3173 85.624 12.9744C85.85 12.6315 86.1175 12.3798 86.4263 12.2209C86.7351 12.062 87.0917 11.9818 87.496 11.9818C87.9863 11.9818 88.4782 12.1564 88.9685 12.5025C88.1057 13.6178 87.6743 14.9297 87.6743 16.4368C87.6743 18.3512 88.3764 19.9322 89.782 21.1844C91.1781 22.4271 92.9769 23.0485 95.1817 23.0485C97.3864 23.0485 99.0595 22.3909 100.494 21.0774C101.938 19.7639 102.659 18.1404 102.659 16.2087C102.659 14.2769 101.976 12.6629 100.608 11.4469V11.4485ZM98.2222 19.3643C97.4135 20.2326 96.3819 20.6652 95.1291 20.6652C93.8763 20.6652 92.8559 20.2672 92.0648 19.4744C91.2752 18.6989 90.8804 17.6716 90.8804 16.3927C90.8804 15.1138 91.2991 14.0693 92.138 13.2292C92.9753 12.3986 94.0355 11.9833 95.317 11.9833C96.5984 11.9833 97.5472 12.3577 98.3081 13.1065C99.0691 13.827 99.4495 14.8086 99.4495 16.0514C99.4495 17.4026 99.0404 18.507 98.2206 19.3659L98.2222 19.3643Z" fill="#F15B67"/>
<path d="M78.2615 9.59696L78.045 11.3683C77.3223 10.5974 76.7317 10.0453 75.603 9.74011C74.6813 9.49156 74.4091 9.43965 73.4365 9.43965C71.375 9.43965 69.6844 10.2734 68.3647 11.6278C68.3186 11.6766 68.2756 11.7269 68.2294 11.7773C68.0559 11.5382 67.8665 11.3085 67.6531 11.093C66.5165 9.93832 65.0472 9.36256 63.2452 9.36256C61.7807 9.36256 60.3639 9.84865 58.9965 10.8192L59.1843 9.36256H55.991L53.7974 27.5916H56.9907L57.7245 21.0444C58.4473 21.8152 59.0379 22.3673 60.1665 22.6725C61.0882 22.9211 61.3604 22.973 62.3331 22.973C64.3946 22.973 66.0851 22.1392 67.4048 20.7848C67.451 20.736 67.494 20.6857 67.5385 20.6369C67.712 20.876 67.9031 21.1057 68.1148 21.3212C69.2514 22.4759 70.7207 23.0516 72.5227 23.0516C73.9873 23.0516 75.404 22.5655 76.7715 21.5949L76.5836 23.0516H79.777L81.4532 9.59853H78.2599L78.2615 9.59696ZM74.277 18.2883H76.988C76.7985 18.636 76.5629 18.9647 76.2812 19.2762C75.4231 20.2012 74.4075 20.6652 73.2311 20.6652C72.1709 20.6652 71.3049 20.2956 70.63 19.5578C70.2177 19.1063 69.9343 18.5762 69.7735 17.969H65.6649C65.477 18.3638 65.2335 18.7303 64.9342 19.0701C64.1255 19.9778 63.1226 20.4309 61.9287 20.4309C60.8303 20.4309 59.9341 20.0612 59.24 19.3234C58.9471 19.0151 58.7195 18.6658 58.5507 18.2789L61.2745 18.2663L62.5846 16.9716V15.6282L61.1391 14.1951H58.7434C58.9392 13.8223 59.1859 13.4699 59.4868 13.138C60.3448 12.213 61.3604 11.7489 62.5368 11.7489C63.597 11.7489 64.463 12.1186 65.138 12.8564C65.5757 13.3362 65.8686 13.9057 66.0231 14.5616H70.0521C70.2463 14.1227 70.5074 13.7169 70.8353 13.3456C71.644 12.438 72.6469 11.9849 73.8408 11.9849C74.9392 11.9849 75.8354 12.3546 76.5295 13.0924C76.8399 13.418 77.0755 13.7908 77.2474 14.2045L74.1433 14.2187L72.8331 15.5134V16.8568L74.2786 18.2899L74.277 18.2883Z" fill="#F15B67"/>
</g>
<g clip-path="url(#clip1_1050_597)">
<path d="M25.0991 0H2.68919C1.20341 0 0 1.20341 0 2.68919V25.0991C0 26.5849 1.20341 27.7883 2.68919 27.7883H25.0991C26.5849 27.7883 27.7883 26.5849 27.7883 25.0991V2.68919C27.7883 1.20341 26.5849 0 25.0991 0ZM3.24944 16.3951L5.95656 16.3817L7.5275 14.8107V13.1793L5.79297 11.4403H3.24944V10.889C3.41527 10.638 3.60128 10.3937 3.81193 10.1584C4.84055 9.03569 6.05965 8.4732 7.46923 8.4732C8.73987 8.4732 9.7797 8.9214 10.5887 9.81779C11.1131 10.4005 11.4649 11.0907 11.6487 11.8862H16.478C16.7111 11.3529 17.0248 10.8599 17.417 10.4094C18.3874 9.30909 19.5885 8.7578 21.0205 8.7578C22.3382 8.7578 23.4117 9.206 24.2431 10.1024C24.3484 10.2144 24.4448 10.3332 24.5366 10.4542V11.4537L21.3813 11.4694L19.8104 13.0403V14.6695L21.5449 16.4086H24.5366V16.8388C24.3641 17.1033 24.1691 17.361 23.9495 17.6075C22.9209 18.7302 21.7018 19.2927 20.2922 19.2927C19.0216 19.2927 17.9817 18.8445 17.1727 17.9481C16.6797 17.4013 16.3391 16.7582 16.1464 16.0186H11.2207C10.9943 16.4982 10.703 16.9442 10.3444 17.3543C9.37408 18.4546 8.1729 19.0059 6.74091 19.0059C5.4232 19.0059 4.34977 18.5577 3.51836 17.6613C3.422 17.5604 3.3346 17.4529 3.24944 17.343V16.3884V16.3951ZM5.30891 3.24944H22.4794C23.6178 3.24944 24.5389 4.17273 24.5389 5.30891V6.65127C24.1422 6.39804 23.694 6.19411 23.136 6.04172C22.0312 5.73918 21.704 5.67644 20.5365 5.67644C18.0646 5.67644 16.0366 6.68937 14.4544 8.33201C14.3984 8.39028 14.3468 8.45303 14.2931 8.51353C14.0846 8.22221 13.8583 7.94432 13.6028 7.68213C12.2403 6.2815 10.4789 5.58231 8.31857 5.58231C6.57283 5.58231 4.88312 6.16497 3.24944 7.33253V5.31115C3.24944 4.17273 4.17273 3.25168 5.30891 3.25168V3.24944ZM22.4794 24.5389H5.30891C4.17049 24.5389 3.24944 23.6156 3.24944 22.4794V21.1371C3.63937 21.3813 4.08085 21.5808 4.62765 21.7309C5.73246 22.0334 6.05965 22.0962 7.22496 22.0962C9.69678 22.0962 11.7249 21.0833 13.307 19.4406C13.363 19.3824 13.4146 19.3196 13.4684 19.2613C13.6745 19.5527 13.9054 19.8283 14.1586 20.0905C15.5211 21.4911 17.2848 22.1903 19.4429 22.1903C21.1976 22.1903 22.8962 21.6009 24.5366 20.4222V22.4772C24.5366 23.6156 23.6133 24.5366 22.4772 24.5366L22.4794 24.5389Z" fill="#F15B67"/>
</g>
<defs>
<clipPath id="clip0_1050_597">
<rect width="66.0951" height="26.59" fill="white" transform="translate(36.5636 1)"/>
</clipPath>
<clipPath id="clip1_1050_597">
<rect width="27.7883" height="27.7883" fill="white"/>
</clipPath>
</defs>
</svg>
